<svg width="158" height="131" viewBox="0 0 158 131" fill="none" xmlns="http://www.w3.org/2000/svg">
<path d="M46.1133 41.8973V37.5968H68.3749L72.8329 5.72216C72.8329 5.72216 73.35 2.77081 74.3619 2.01189C75.3738 1.25297 78.4095 1.37197 78.4095 1.37197L115.681 1L120.066 5.30054L115.512 37.5968V41.8973H73.4344H46.1133Z" fill="#FDF5E4"/>
<path d="M73.4344 37.5968H115.512M73.4344 37.5968V41.8973M73.4344 37.5968H68.3749M73.4344 37.5968L77.4529 7.99892C77.4529 7.99892 77.6506 6.22811 78.4095 5.72216C79.1684 5.21622 80.5176 5.30054 80.5176 5.30054H120.066M73.4344 41.8973H46.1133V37.5968H68.3749M73.4344 41.8973H115.512V37.5968M115.512 37.5968L120.066 5.30054M120.066 5.30054L115.681 1L78.4095 1.37197C78.4095 1.37197 75.3738 1.25297 74.3619 2.01189C73.35 2.77081 72.8329 5.72216 72.8329 5.72216L68.3749 37.5968" stroke="black"/>
<path d="M147.05 129.763V52.1001H138.027M147.05 129.763H157V43.499H62.8097M147.05 129.763H91.1427V106.321M62.8097 43.499H1V129.763H62.8097M62.8097 43.499V129.763M62.8097 129.763H71.7481V106.321M71.7481 106.321V52.1001H138.027M71.7481 106.321H91.1427M138.027 52.1001V106.321H91.1427" stroke="#717171" stroke-width="1.5"/>
<path d="M98.3067 19H97.2L95 21.1019V21.9809H97.2V23H98.3067V21.1019H96.1067L98.3067 19Z" fill="black"/>
<path d="M98.8 20.0573V19H99.9067H101V20.0573L99.9067 21.1019V22.1592L101 21.1146V22.1592H99.9067H98.8V21.1146L99.9067 20.0573V19L98.8 20.0573Z" fill="black"/>
</svg>
